<?xml version="1.0" encoding="utf-8"?><svg xmlns="http://www.w3.org/2000/svg" xmlns:xlink="http://www.w3.org/1999/xlink"><symbol viewBox="0 0 80 80" id="footer-logo" xmlns="http://www.w3.org/2000/svg"><path d="M23.373 66.915V48.413L39.106 17.38V45.4l-1.594 3.014L40 52.541l2.488-4.128-1.594-3.014v-28.02l15.733 31.359v18.177c9.01-5.587 15.023-15.57 15.023-26.933h.332C71.982 57.625 57.635 71.98 40 71.98c-17.635 0-31.982-14.354-31.982-31.997h.333c0 11.362 6.013 21.346 15.022 26.933zM.22 34.643l.459-2.282c.169-.841.552-1.495 1.12-1.873.512-.34 1.194-.455 2.023-.288l.07.014c1.151.232 1.761.895 2.02 1.69l3.408-.788-.346 1.717-2.973.66-.137.68 2.73.55-.31 1.544L.22 34.643zm4.396-1.357c.17-.841-.252-1.37-1.024-1.525-.852-.172-1.36.205-1.529 1.047l-.116.576 2.546.513.123-.61zm-2.303-6.913l1.679-3.934 1.34.572-1.066 2.497 1.75.747.941-2.205 1.34.572-.941 2.206 1.793.766 1.084-2.54 1.34.572-1.698 3.978-7.562-3.231zm3.385-7.079l1.17-1.662c1.238-1.759 3.196-1.947 5.261-.492l.154.108c2.055 1.449 2.548 3.362 1.31 5.121l-1.17 1.663-6.725-4.738zm2.078-.462l4.38 3.086.251-.355c.63-.894.412-1.953-1.087-3.009l-.096-.067c-1.498-1.056-2.568-.904-3.197-.01l-.25.355zm4.531-7.663l1.17-1.071 7.268 4.544-1.186 1.088-1.488-.964-1.56 1.43.839 1.558-1.144 1.048-3.899-7.633zm4.542 2.82l-2.32-1.54 1.315 2.46 1.005-.92zm1.034-7.305l1.364-.787 1.748 3.035-.048-4.015 1.588-.915-.096 4.071 4.264 3.023-1.568.904-2.928-2.07-.015 1.08 1.162 2.017-1.365.786-4.106-7.129zm9.044-2.817l-1.48.499-.473-1.404 4.453-1.5.473 1.403-1.481.499 2.153 6.394-1.492.502-2.153-6.393zM38.106 0l-.546 1.273c.526.635.898 1.56 1.039 2.727l.032.269c.308 2.555-.732 4.23-2.482 4.442a2.63 2.63 0 01-1.61-.303l-.206.45-1.142.138.544-1.272c-.526-.635-.896-1.55-1.038-2.728l-.032-.268c-.31-2.567.732-4.231 2.481-4.442.583-.07 1.13.041 1.612.314l.204-.462L38.105 0zm-1.052 4.435l-.024-.198a5.948 5.948 0 00-.248-1.177l-1.68 3.93c.267.252.563.347.889.308.816-.099 1.285-1.02 1.063-2.863zm-2.552 1.503l1.68-3.93a1.067 1.067 0 00-.877-.31c-.817.1-1.285 1.02-1.063 2.863l.024.199c.054.455.137.847.236 1.178zM41.76.088l2.314.239c.853.088 1.54.408 1.97.937.388.477.567 1.145.48 1.987l-.007.07c-.121 1.17-.722 1.84-1.489 2.174l1.11 3.317-1.74-.18-.942-2.898-.69-.07-.286 2.77-1.566-.161.846-8.185zm1.77 4.248c.853.088 1.339-.382 1.42-1.165.089-.865-.335-1.334-1.188-1.423l-.585-.06-.267 2.584.62.064zm8.444-2.439l1.504.503-.445 8.565-1.527-.51.12-1.77-2.006-.67-.956 1.49-1.471-.493 4.78-7.115zm-.261 5.342l.221-2.777-1.514 2.345 1.293.432zm6.94-2.62l1.243.762-.353 5.05 2.346-3.828 1.313.805-4.299 7.015-1.162-.712.37-5.26-2.443 3.988-1.313-.805 4.299-7.015zm2.062 9.932l1.522-.24c.022.49.05 1.23.553 1.706.417.397.923.358 1.246.017.251-.264.309-.598.015-1.638-.394-1.395-.478-2.366.314-3.202l.016-.016c.954-1.007 2.334-.994 3.4.017.511.485.956 1.263.956 2.22l-1.531.215c.005-.432-.06-1.03-.478-1.426-.342-.323-.792-.361-1.09-.046-.267.282-.325.616.017 1.912.35 1.321.35 2.194-.403 2.988l-.016.017c-.97 1.023-2.426.97-3.432.016-.597-.566-1.06-1.394-1.09-2.54zm10.29.08l.96 1.352-3.758 4.246 5.244-2.158.932 1.313-7.978 3.036-.885-1.245 5.486-6.543zm5.382 8.63l.642 1.45-6.625 5.444-.651-1.472 1.387-1.104-.857-1.935-1.744.298-.629-1.419 8.477-1.262zm-4.12 3.408l2.199-1.708-2.752.46.552 1.248zm6.581 3.324l.456 2.282c.168.841.066 1.593-.312 2.16-.341.511-.926.88-1.756 1.045l-.07.014c-1.151.23-1.969-.146-2.514-.78l-2.84 2.04-.342-1.716 2.489-1.756-.136-.68-2.73.546-.308-1.545 8.063-1.61zm-3.532 2.947c.168.84.76 1.166 1.531 1.012.853-.17 1.176-.714 1.008-1.555l-.115-.576-2.546.508.122.61zM40 80C17.944 80 0 62.048 0 39.982h1.33C1.33 61.314 18.677 78.67 40 78.67s38.67-17.355 38.67-38.687H80C80 62.048 62.056 80 40 80z" fill-rule="evenodd"/></symbol><symbol viewBox="0 0 100 100" preserveAspectRatio="none" id="linear" xmlns="http://www.w3.org/2000/svg"><path vector-effect="non-scaling-stroke" d="M1.667 12c1.11.833 2.222 1.667 3.333 5 1.111 3.333 2.222 19.667 3.333 23 1.111 3.333 2.223 5 3.334 5 1.11 0 2.222-16.5 3.333-24 1.111-7.5 2.222-21 3.333-21 1.111 0 2.223 13 3.334 13 1.11 0 2.222-6.167 3.333-8 1.111-1.833 2.222-3 3.333-3 1.111 0 2.223 8.833 3.334 14 1.11 5.167 2.222 17 3.333 17 1.111 0 2.222-14 3.333-19 1.111-5 2.223-11 3.334-11 1.11 0 2.222 21 3.333 21 1.111 0 2.222-2 3.333-2 1.111 0 2.223 6.667 3.334 11 1.11 4.333 2.222 6.833 3.333 15 1.111 8.167 2.222 34 3.333 34 1.111 0 2.223-7 3.334-11 1.11-4 2.222-9.667 3.333-13 1.111-3.333 2.222-7 3.333-7 1.111 0 2.223 7.333 3.334 13 1.11 5.667 2.222 21 3.333 21 1.111 0 2.222-9 3.333-9 1.111 0 2.223 24 3.334 24 1.11 0 2.222-1 3.333-3 1.111-2 2.222-9 3.333-9 1.111 0 2.223 2 3.334 2 1.11 0 2.222-.667 3.333-2 1.111-1.333 2.222-5.167 3.333-9"/></symbol><symbol viewBox="0 0 100 100" preserveAspectRatio="none" id="max-red-stat" xmlns="http://www.w3.org/2000/svg"><path d="M0 62.439h3.03v-.732h3.03v1.464h3.03v2.195h3.031v-3.903h3.03V50.488h3.03V36.34h3.031v-1.95h3.03v5.365h3.03v3.659h3.031v4.634h3.03v-1.951h3.03v-5.854h3.03v-6.098h3.031V21.707h3.03v2.683h3.03v5.366h3.031v-1.22h3.03v6.83h3.03v3.17h3.031v-10h3.03v-11.95h3.03v-3.903h3.031v-.976h3.03V9.268h3.03v1.22h3.03v.732h3.031V6.34h3.03V4.39h3.03V2.438h3.031v-1.22h3.03V0h3.03v6.341H100V100H0z"/><path d="M1.515 62.683c1.01.372 2.02.743 3.03 1.045 1.01.302 2.02.72 3.03.767 1.01.046 2.021.07 3.031.07 1.01 0 2.02-.186 3.03-.558 1.01-.372 2.02-1.144 3.03-2.265 1.01-1.12 2.02-3.049 3.031-4.46 1.01-1.41 2.02-2.816 3.03-4.007 1.01-1.19 2.02-2.143 3.03-3.136 1.01-.993 2.02-1.94 3.03-2.822a63 63 0 013.031-2.474c1.01-.778 2.02-1.585 3.03-2.195 1.01-.61 2.02-1.254 3.03-1.463 1.01-.21 2.021-.105 3.031-.314 1.01-.209 2.02-1.144 3.03-1.812 1.01-.668 2.02-1.504 3.03-2.195 1.01-.69 2.02-1.161 3.031-1.951 1.01-.79 2.02-2.067 3.03-2.788 1.01-.72 2.02-1.37 3.03-1.533 1.01-.162 2.02-.081 3.03-.244 1.011-.162 2.021-.545 3.031-.801 1.01-.255 2.02-.331 3.03-.732 1.01-.4 2.02-.964 3.03-1.672 1.01-.709 2.021-1.69 3.031-2.579 1.01-.888 2.02-1.701 3.03-2.752 1.01-1.051 2.02-2.311 3.03-3.554 1.01-1.243 2.02-2.724 3.031-3.903 1.01-1.178 2.02-2.352 3.03-3.17 1.01-.82 2.02-1.208 3.03-1.742 1.01-.535 2.02-1 3.03-1.464V100H1.517z"/><path vector-effect="non-scaling-stroke" d="M1.515 62.683c1.01.372 2.02.743 3.03 1.045 1.01.302 2.02.72 3.03.767 1.01.046 2.021.07 3.031.07 1.01 0 2.02-.186 3.03-.558 1.01-.372 2.02-1.144 3.03-2.265 1.01-1.12 2.02-3.049 3.031-4.46 1.01-1.41 2.02-2.816 3.03-4.007 1.01-1.19 2.02-2.143 3.03-3.136 1.01-.993 2.02-1.94 3.03-2.822a63 63 0 013.031-2.474c1.01-.778 2.02-1.585 3.03-2.195 1.01-.61 2.02-1.254 3.03-1.463 1.01-.21 2.021-.105 3.031-.314 1.01-.209 2.02-1.144 3.03-1.812 1.01-.668 2.02-1.504 3.03-2.195 1.01-.69 2.02-1.161 3.031-1.951 1.01-.79 2.02-2.067 3.03-2.788 1.01-.72 2.02-1.37 3.03-1.533 1.01-.162 2.02-.081 3.03-.244 1.011-.162 2.021-.545 3.031-.801 1.01-.255 2.02-.331 3.03-.732 1.01-.4 2.02-.964 3.03-1.672 1.01-.709 2.021-1.69 3.031-2.579 1.01-.888 2.02-1.701 3.03-2.752 1.01-1.051 2.02-2.311 3.03-3.554 1.01-1.243 2.02-2.724 3.031-3.903 1.01-1.178 2.02-2.352 3.03-3.17 1.01-.82 2.02-1.208 3.03-1.742 1.01-.535 2.02-1 3.03-1.464"/></symbol><symbol viewBox="0 0 100 100" preserveAspectRatio="none" id="red-stat" xmlns="http://www.w3.org/2000/svg"><path d="M0 69.982h3.226v3.184h3.226v-.138h3.225v12.785h3.226v1.746h3.226V86.15h3.226v-9.608h3.226V70.59h3.225v1.845h3.226v2.433h3.226v6.086h3.226v5.561h3.226v-4.673h3.225V67.267h3.226V50.453h3.226v-2.902h3.226v3.165h3.226V61.47h3.226v5.454h3.225v6.906h3.226V59.092h3.226V39.814h3.226v-13.78h3.226v1.426h3.225v-4.773h3.226v24.289h3.226v5.46h3.226V31h3.226V3.878h3.225V0h3.226v56.52H100V100H0z"/><path d="M1.613 72.73c1.075.587 2.15 1.173 3.226 1.297 1.075.124 2.15.062 3.226.186 1.075.124 2.15 1.547 3.225 2.163 1.076.616 2.15 1.158 3.226 1.534 1.075.376 2.15.558 3.226.722 1.075.163 2.15.202 3.226.26 1.075.058 2.15.086 3.226.086 1.075 0 2.15-.104 3.225-.104 1.076 0 2.15.263 3.226.263 1.075 0 2.15-.595 3.226-.695 1.075-.1 2.15-.05 3.226-.149 1.075-.1 2.15-.292 3.226-.616 1.075-.323 2.15-.625 3.225-1.325 1.076-.7 2.15-1.804 3.226-2.876 1.075-1.072 2.15-2.387 3.226-3.555 1.075-1.167 2.15-2.411 3.226-3.45 1.075-1.039 2.15-1.853 3.226-2.784 1.075-.93 2.15-2.141 3.225-2.798 1.076-.657 2.151-.76 3.226-1.145 1.075-.385 2.15-.72 3.226-1.168 1.075-.448 2.15-.754 3.226-1.52 1.075-.765 2.15-2.008 3.226-3.074 1.075-1.066 2.15-1.845 3.225-3.322 1.076-1.477 2.151-4.142 3.226-5.54 1.076-1.399 2.15-1.866 3.226-2.85 1.075-.984 2.15-1.878 3.226-3.056a40.713 40.713 0 003.226-4.013c1.075-1.525 2.15-3.658 3.225-5.134 1.076-1.475 2.151-2.597 3.226-3.719V100H1.613z"/><path vector-effect="non-scaling-stroke" d="M1.613 72.73c1.075.587 2.15 1.173 3.226 1.297 1.075.124 2.15.062 3.226.186 1.075.124 2.15 1.547 3.225 2.163 1.076.616 2.15 1.158 3.226 1.534 1.075.376 2.15.558 3.226.722 1.075.163 2.15.202 3.226.26 1.075.058 2.15.086 3.226.086 1.075 0 2.15-.104 3.225-.104 1.076 0 2.15.263 3.226.263 1.075 0 2.15-.595 3.226-.695 1.075-.1 2.15-.05 3.226-.149 1.075-.1 2.15-.292 3.226-.616 1.075-.323 2.15-.625 3.225-1.325 1.076-.7 2.15-1.804 3.226-2.876 1.075-1.072 2.15-2.387 3.226-3.555 1.075-1.167 2.15-2.411 3.226-3.45 1.075-1.039 2.15-1.853 3.226-2.784 1.075-.93 2.15-2.141 3.225-2.798 1.076-.657 2.151-.76 3.226-1.145 1.075-.385 2.15-.72 3.226-1.168 1.075-.448 2.15-.754 3.226-1.52 1.075-.765 2.15-2.008 3.226-3.074 1.075-1.066 2.15-1.845 3.225-3.322 1.076-1.477 2.151-4.142 3.226-5.54 1.076-1.399 2.15-1.866 3.226-2.85 1.075-.984 2.15-1.878 3.226-3.056a40.713 40.713 0 003.226-4.013c1.075-1.525 2.15-3.658 3.225-5.134 1.076-1.475 2.151-2.597 3.226-3.719"/></symbol><symbol viewBox="0 0 50.962 10.163" id="vg-logo" xmlns="http://www.w3.org/2000/svg"><path d="M48.533 10.141H30.229s-2.218.127-2.218-1.859V2.22c0-2.355 2.218-2.218 2.218-2.218h18.494c2.271 0 2.229 2.229 2.229 2.229V2.6h-7.225v-.401s-.085-1.035-1.32-1.035h-5.598c-1.521 0-1.479 1.268-1.479 1.268v5.123s-.169 1.458 1.384 1.458h5.651c1.278 0 1.405-1.257 1.405-1.257V5.843h-4.109V4.66h11.302v3.338c-.011-.001-.011 2.143-2.43 2.143zm-39.83.022L0 .002h8.967l4.542 6.855 4.89-6.855h8.873l-8.809 10.161h-9.76"/></symbol></svg>